<svg width="19" height="19" viewBox="0 0 19 19" fill="none" xmlns="http://www.w3.org/2000/svg">
<path d="M12.6902 0.553525L12.6902 0.553648L12.7013 0.553886C13.3928 0.568677 14.0751 0.698875 14.7199 0.941192C15.7955 1.35734 16.6458 2.20825 17.0641 3.285C17.3106 3.93686 17.44 4.63004 17.4521 5.33157L17.4522 5.3419L17.4529 5.35221C17.5078 6.29196 17.508 6.58687 17.508 9.033C17.508 11.4724 17.495 11.7691 17.4525 12.7207L17.4523 12.7207L17.4521 12.733C17.4382 13.4237 17.3082 14.1047 17.0659 14.7506C16.6477 15.8265 15.7979 16.6765 14.722 17.0948C14.0754 17.3364 13.3933 17.4673 12.704 17.4811L12.6946 17.4813L12.6853 17.4818C11.7472 17.5358 11.4491 17.536 9.004 17.536C6.566 17.536 6.26873 17.523 5.31618 17.4815L5.31579 17.4815L5.31579 17.4814L5.30999 17.4813C4.61782 17.4591 3.93491 17.3169 3.291 17.0653L3.28937 17.0647C2.21172 16.6479 1.36074 15.7967 0.942131 14.7207C0.699742 14.0737 0.56975 13.3926 0.5559 12.702L0.555707 12.6924L0.555146 12.6828C0.500155 11.743 0.5 11.4471 0.5 9.002C0.5 6.56261 0.512969 6.26585 0.555501 5.31433L0.555653 5.31433L0.5559 5.30202C0.569753 4.61121 0.699796 3.93012 0.942172 3.28421C1.35954 2.2079 2.20971 1.35718 3.28637 0.941106C3.93094 0.697887 4.61295 0.567755 5.30205 0.553899L5.31115 0.553716L5.32023 0.553203C6.25855 0.500146 6.55694 0.5 9.002 0.5C11.4407 0.5 11.7376 0.511978 12.6902 0.553525ZM16.471 14.4994C16.6335 14.0597 16.7383 13.6026 16.7851 13.139H16.802L16.8235 12.6615C16.867 11.6942 16.867 11.42 16.867 8.99964V8.985C16.867 6.5511 16.856 6.2708 16.8128 5.31459C16.8021 4.69051 16.6857 4.07259 16.4714 3.48872L16.4715 3.48869L16.4682 3.48032C16.1126 2.5627 15.3881 1.83644 14.4698 1.48246L14.4699 1.48243L14.4643 1.48037C13.879 1.26265 13.262 1.14714 12.6375 1.13819C11.6652 1.083 11.3928 1.083 8.9837 1.083H8.966C6.53202 1.083 6.25163 1.09496 5.29601 1.13817C4.67309 1.14783 4.05344 1.26318 3.46817 1.48019L3.46816 1.48016L3.46326 1.48204C2.54262 1.83442 1.81282 2.5593 1.45663 3.48072L1.45658 3.4807L1.45402 3.48762C1.23517 4.07962 1.12103 4.7025 1.11218 5.33107C1.059 6.30523 1.059 6.57567 1.059 8.98601V9.003C1.059 11.4355 1.06895 11.7169 1.11219 12.6724C1.12289 13.2965 1.23932 13.9144 1.45362 14.4983L1.45355 14.4983L1.45671 14.5065C1.8128 15.4265 2.54245 16.1527 3.46378 16.5042L3.4674 16.5055C4.05207 16.7234 4.67109 16.8389 5.29347 16.8478C6.2668 16.903 6.53811 16.903 8.9484 16.903H8.966C11.3983 16.903 11.6803 16.892 12.6353 16.8478C13.2597 16.8382 13.8775 16.7239 14.4643 16.5056L14.4643 16.5057L14.4693 16.5037C15.388 16.1508 16.1126 15.4243 16.4682 14.5067L16.4683 14.5067L16.471 14.4994ZM4.874 8.995C4.874 6.71807 6.71921 4.872 8.997 4.872C11.2729 4.872 13.12 6.71821 13.12 8.995C13.12 11.2729 11.2729 13.119 8.997 13.119C6.71928 13.119 4.874 11.273 4.874 8.995ZM5.493 8.996C5.493 10.9303 7.06197 12.499 8.997 12.499C10.9325 12.499 12.499 10.9298 12.499 8.996C12.499 7.06107 10.9324 5.493 8.997 5.493C7.06207 5.493 5.493 7.06064 5.493 8.996ZM14.382 4.202C14.382 4.52122 14.1232 4.78 13.804 4.78C13.4848 4.78 13.226 4.52122 13.226 4.202C13.226 3.88278 13.4848 3.624 13.804 3.624C14.1232 3.624 14.382 3.88278 14.382 4.202Z" fill="#20448F" stroke="#20448F"/>
</svg>
