<svg width="21" height="19" viewBox="0 0 21 19" fill="none" xmlns="http://www.w3.org/2000/svg">
<path d="M1.90851 1.46383L4.11798 3.6733L4.55892 4.11424C2.95996 5.36434 1.69533 7.0263 0.939453 8.94987C2.61595 13.2041 6.75386 16.2179 11.5992 16.2179C13.1013 16.2179 14.5355 15.9272 15.8486 15.399L16.2604 15.8109L19.0853 18.6405L20.3209 17.4098L3.14407 0.228268L1.90851 1.46383ZM7.26748 6.81794L8.76468 8.31515C8.72108 8.52351 8.692 8.73183 8.692 8.94987C8.692 10.5537 9.99539 11.8571 11.5992 11.8571C11.8172 11.8571 12.0256 11.828 12.2291 11.7844L13.7263 13.2816C13.0819 13.6014 12.3648 13.7952 11.5992 13.7952C8.92458 13.7952 6.75386 11.6245 6.75386 8.94987C6.75386 8.18432 6.94768 7.4672 7.26748 6.81794Z" fill="#20448F"/>
</svg>
